<svg xmlns="http://www.w3.org/2000/svg" style="display:none" aria-hidden="true" xmlns:c2pa="http://c2pa.org/manifest"><metadata><c2pa:manifest>AAAWgmp1bWIAAAAeanVtZGMycGEAEQAQgAAAqgA4m3EDYzJwYQAAABZcanVtYgAAAEdqdW1kYzJtYQARABCAAACqADibcQN1cm46YzJwYTpkYTg5YzU0Yi0wZWEyLTRkM2MtYTE2OC1iZjIzMWM5MDhjNzEAAAADl2p1bWIAAAApanVtZGMyYXMAEQAQgAAAqgA4m3EDYzJwYS5hc3NlcnRpb25zAAAAALxqdW1iAAAARGp1bWRjYm9yABEAEIAAAKoAOJtxE2MycGEuaW5ncmVkaWVudC52MwAAAAAYYzJzaBH5h157jUPdvYnC7KDFfysAAABwY2JvcqNpZGM6Zm9ybWF0bWltYWdlL3N2Zyt4bWxqaW5zdGFuY2VJRHgseG1wOmlpZDpiZWIyZjE4NC0yNTUyLTQ5NmUtYjE2OC1mYjk5MThhN2I4MjlscmVsYXRpb25zaGlwaHBhcmVudE9mAAAB4mp1bWIAAABBanVtZGNib3IAEQAQgAAAqgA4m3ETYzJwYS5hY3Rpb25zLnYyAAAAABhjMnNoDyXZmvnwteTrDDq1AYjanQAAAZljYm9yomdhY3Rpb25zgqJmYWN0aW9ua2MycGEub3BlbmVkanBhcmFtZXRlcnOha2luZ3JlZGllbnRzgaJjdXJseC1zZWxmI2p1bWJmPWMycGEuYXNzZXJ0aW9ucy9jMnBhLmluZ3JlZGllbnQudjNkaGFzaFggAf6cd5gTaW5gvmiKZNFMWOh4j6tDFDYA49lHQdr1LPGkZmFjdGlvbngdY29tLmFudGhyb3BpYy5jbGF1ZGUucHJvdmlkZWRqcGFyYW1ldGVyc6F4H2NvbS5hbnRocm9waWMub3JpZ2luLWNvbmZpZGVuY2VndW5rbm93bmtkZXNjcmlwdGlvbnhmQ2xhdWRlIHByb3ZpZGVkIHRoaXMgZmlsZSBhdCB0aGUgcmVxdWVzdCBvZiBhIHVzZXIgYW5kIG1heSBoYXZlIGNyZWF0ZWQgb3IgbW9kaWZpZWQgdGhlIGZpbGUgY29udGVudHMubXNvZnR3YXJlQWdlbnShZG5hbWVmQ2xhdWRlcmFsbEFjdGlvbnNJbmNsdWRlZPUAAADIanVtYgAAAEBqdW1kY2JvcgARABCAAACqADibcRNjMnBhLmhhc2guZGF0YQAAAAAYYzJzaGHsfgkAr9IeNHTamsfR7ycAAACAY2JvcqVjYWxnZnNoYTI1NmNwYWRNAAAAAAAAAAAAAAAAAGRoYXNoWCAQ/doyNXFjxaxoemrgcT00jtUC+pHkCA0VEgyOsSsdEmRuYW1lbmp1bWJmIG1hbmlmZXN0amV4Y2x1c2lvbnOBomVzdGFydBiPZmxlbmd0aBkeBAAAAj5qdW1iAAAAJ2p1bWRjMmNsABEAEIAAAKoAOJtxA2MycGEuY2xhaW0udjIAAAACD2Nib3KlY2FsZ2ZzaGEyNTZpc2lnbmF0dXJleE1zZWxmI2p1bWJmPS9jMnBhL3VybjpjMnBhOmRhODljNTRiLTBlYTItNGQzYy1hMTY4LWJmMjMxYzkwOGM3MS9jMnBhLnNpZ25hdHVyZWppbnN0YW5jZUlEeCx4bXA6aWlkOmExYzc1NGYxLWI0MTQtNDkwNS1iZjJjLWFhNzE2YWYyMTUyY3JjcmVhdGVkX2Fzc2VydGlvbnODomN1cmx4LXNlbGYjanVtYmY9YzJwYS5hc3NlcnRpb25zL2MycGEuaW5ncmVkaWVudC52M2RoYXNoWCAB/px3mBNpbmC+aIpk0UxY6HiPq0MUNgDj2UdB2vUs8aJjdXJseCpzZWxmI2p1bWJmPWMycGEuYXNzZXJ0aW9ucy9jMnBhLmFjdGlvbnMudjJkaGFzaFgguwaYcqTnZHZQc58xqQic7AhlQzIoJjNtO1ClnEuQyd2iY3VybHgpc2VsZiNqdW1iZj1jMnBhLmFzc2VydGlvbnMvYzJwYS5oYXNoLmRhdGFkaGFzaFggnb/ahAaZOKshspH7stbw+qT6sCd7zWP4JX+ZOAm/TJ50Y2xhaW1fZ2VuZXJhdG9yX2luZm+jZG5hbWVvQW50aHJvcGljIEZpbGVzZ3ZlcnNpb25lMS4wLjBrc3BlY1ZlcnNpb25lMi40LjAAABA4anVtYgAAAChqdW1kYzJjcwARABCAAACqADibcQNjMnBhLnNpZ25hdHVyZQAAABAIY2JvctKEWQISogEmGCFZAgowggIGMIIBjaADAgECAhRA5aAK7sI50L64g/oGQgU9Z1UTADAKBggqhkjOPQQDAzBJMRcwFQYDVQQKEw5BbnRocm9waWMsIFBCQzEuMCwGA1UEAxMlQW50aHJvcGljIENvbnRlbnQgQ3JlZGVudGlhbHMgUm9vdCBDQTAeFw0yNjA4MDcxODQzNTZaFw0yODA4MDYxOTQzNTZaMEQxFzAVBgNVBAoTDkFudGhyb3BpYywgUEJDMSkwJwYDVQQDEyBBbnRocm9waWMgQ2xhdWRlIENvbnRlbnQgU2lnbmluZzBZMBMGByqGSM49AgEGCCqGSM49AwEHA0IABJh6CmvLUBgFFNU0vUKlOVtE6djd17L5SuwX0LemFisBM3dkd/3cyjxFA3Qo5S46fX0/ihY0VZ7mfb9KF703t5OjWDBWMA4GA1UdDwEB/wQEAwIHgDAVBgNVHSUEDjAMBgorBgEEAYPoXgIBMAwGA1UdEwEB/wQCMAAwHwYDVR0jBBgwFoAUzlHiBIFOZFsj+OPEz5o+nMHXXMIwCgYIKoZIzj0EAwMDZwAwZAIwMXMdFJ4BetLLVY7ORuE9noqbbAZOZn/aArXyTwFAZfKrPzxF2vPoJNf1+UCdg1XGAjBwX1zd9WGqYkqmL5SFqw1QySjr1zJfpJM9+1rdDwSPLMOPOjKuiXjoU/pUUeG9RwmhY3BhZFkNngAAAAAAAAAAAAAAAAAAAAAAAAAAAAAAAAAAAAAAAAAAAAAAAAAAAAAAAAAAAAAAAAAAAAAAAAAAAAAAAAAAAAAAAAAAAAAAAAAAAAAAAAAAAAAAAAAAAAAAAAAAAAAAAAAAAAAAAAAAAAAAAAAAAAAAAAAAAAAAAAAAAAAAAAAAAAAAAAAAAAAAAAAAAAAAAAAAAAAAAAAAAAAAAAAAAAAAAAAAAAAAAAAAAAAAAAAAAAAAAAAAAAAAAAAAAAAAAAAAAAAAAAAAAAAAAAAAAAAAAAAAAAAAAAAAAAAAAAAAAAAAAAAAAAAAAAAAAAAAAAAAAAAAAAAAAAAAAAAAAAAAAAAAAAAAAAAAAAAAAAAAAAAAAAAAAAAAAAAAAAAAAAAAAAAAAAAAAAAAAAAAAAAAAAAAAAAAAAAAAAAAAAAAAAAAAAAAAAAAAAAAAAAAAAAAAAAAAAAAAAAAAAAAAAAAAAAAAAAAAAAAAAAAAAAAAAAAAAAAAAAAAAAAAAAAAAAAAAAAAAAAAAAAAAAAAAAAAAAAAAAAAAAAAAAAAAAAAAAAAAAAAAAAAAAAAAAAAAAAAAAAAAAAAAAAAAAAAAAAAAAAAAAAAAAAAAAAAAAAAAAAAAAAAAAAAAAAAAAAAAAAAAAAAAAAAAAAAAAAAAAAAAAAAAAAAAAAAAAAAAAAAAAAAAAAAAAAAAAAAAAAAAAAAAAAAAAAAAAAAAAAAAAAAAAAAAAAAAAAAAAAAAAAAAAAAAAAAAAAAAAAAAAAAAAAAAAAAAAAAAAAAAAAAAAAAAAAAAAAAAAAAAAAAAAAAAAAAAAAAAAAAAAAAAAAAAAAAAAAAAAAAAAAAAAAAAAAAAAAAAAAAAAAAAAAAAAAAAAAAAAAAAAAAAAAAAAAAAAAAAAAAAAAAAAAAAAAAAAAAAAAAAAAAAAAAAAAAAAAAAAAAAAAAAAAAAAAAAAAAAAAAAAAAAAAAAAAAAAAAAAAAAAAAAAAAAAAAAAAAAAAAAAAAAAAAAAAAAAAAAAAAAAAAAAAAAAAAAAAAAAAAAAAAAAAAAAAAAAAAAAAAAAAAAAAAAAAAAAAAAAAAAAAAAAAAAAAAAAAAAAAAAAAAAAAAAAAAAAAAAAAAAAAAAAAAAAAAAAAAAAAAAAAAAAAAAAAAAAAAAAAAAAAAAAAAAAAAAAAAAAAAAAAAAAAAAAAAAAAAAAAAAAAAAAAAAAAAAAAAAAAAAAAAAAAAAAAAAAAAAAAAAAAAAAAAAAAAAAAAAAAAAAAAAAAAAAAAAAAAAAAAAAAAAAAAAAAAAAAAAAAAAAAAAAAAAAAAAAAAAAAAAAAAAAAAAAAAAAAAAAAAAAAAAAAAAAAAAAAAAAAAAAAAAAAAAAAAAAAAAAAAAAAAAAAAAAAAAAAAAAAAAAAAAAAAAAAAAAAAAAAAAAAAAAAAAAAAAAAAAAAAAAAAAAAAAAAAAAAAAAAAAAAAAAAAAAAAAAAAAAAAAAAAAAAAAAAAAAAAAAAAAAAAAAAAAAAAAAAAAAAAAAAAAAAAAAAAAAAAAAAAAAAAAAAAAAAAAAAAAAAAAAAAAAAAAAAAAAAAAAAAAAAAAAAAAAAAAAAAAAAAAAAAAAAAAAAAAAAAAAAAAAAAAAAAAAAAAAAAAAAAAAAAAAAAAAAAAAAAAAAAAAAAAAAAAAAAAAAAAAAAAAAAAAAAAAAAAAAAAAAAAAAAAAAAAAAAAAAAAAAAAAAAAAAAAAAAAAAAAAAAAAAAAAAAAAAAAAAAAAAAAAAAAAAAAAAAAAAAAAAAAAAAAAAAAAAAAAAAAAAAAAAAAAAAAAAAAAAAAAAAAAAAAAAAAAAAAAAAAAAAAAAAAAAAAAAAAAAAAAAAAAAAAAAAAAAAAAAAAAAAAAAAAAAAAAAAAAAAAAAAAAAAAAAAAAAAAAAAAAAAAAAAAAAAAAAAAAAAAAAAAAAAAAAAAAAAAAAAAAAAAAAAAAAAAAAAAAAAAAAAAAAAAAAAAAAAAAAAAAAAAAAAAAAAAAAAAAAAAAAAAAAAAAAAAAAAAAAAAAAAAAAAAAAAAAAAAAAAAAAAAAAAAAAAAAAAAAAAAAAAAAAAAAAAAAAAAAAAAAAAAAAAAAAAAAAAAAAAAAAAAAAAAAAAAAAAAAAAAAAAAAAAAAAAAAAAAAAAAAAAAAAAAAAAAAAAAAAAAAAAAAAAAAAAAAAAAAAAAAAAAAAAAAAAAAAAAAAAAAAAAAAAAAAAAAAAAAAAAAAAAAAAAAAAAAAAAAAAAAAAAAAAAAAAAAAAAAAAAAAAAAAAAAAAAAAAAAAAAAAAAAAAAAAAAAAAAAAAAAAAAAAAAAAAAAAAAAAAAAAAAAAAAAAAAAAAAAAAAAAAAAAAAAAAAAAAAAAAAAAAAAAAAAAAAAAAAAAAAAAAAAAAAAAAAAAAAAAAAAAAAAAAAAAAAAAAAAAAAAAAAAAAAAAAAAAAAAAAAAAAAAAAAAAAAAAAAAAAAAAAAAAAAAAAAAAAAAAAAAAAAAAAAAAAAAAAAAAAAAAAAAAAAAAAAAAAAAAAAAAAAAAAAAAAAAAAAAAAAAAAAAAAAAAAAAAAAAAAAAAAAAAAAAAAAAAAAAAAAAAAAAAAAAAAAAAAAAAAAAAAAAAAAAAAAAAAAAAAAAAAAAAAAAAAAAAAAAAAAAAAAAAAAAAAAAAAAAAAAAAAAAAAAAAAAAAAAAAAAAAAAAAAAAAAAAAAAAAAAAAAAAAAAAAAAAAAAAAAAAAAAAAAAAAAAAAAAAAAAAAAAAAAAAAAAAAAAAAAAAAAAAAAAAAAAAAAAAAAAAAAAAAAAAAAAAAAAAAAAAAAAAAAAAAAAAAAAAAAAAAAAAAAAAAAAAAAAAAAAAAAAAAAAAAAAAAAAAAAAAAAAAAAAAAAAAAAAAAAAAAAAAAAAAAAAAAAAAAAAAAAAAAAAAAAAAAAAAAAAAAAAAAAAAAAAAAAAAAAAAAAAAAAAAAAAAAAAAAAAAAAAAAAAAAAAAAAAAAAAAAAAAAAAAAAAAAAAAAAAAAAAAAAAAAAAAAAAAAAAAAAAAAAAAAAAAAAAAAAAAAAAAAAAAAAAAAAAAAAAAAAAAAAAAAAAAAAAAAAAAAAAAAAAAAAAAAAAAAAAAAAAAAAAAAAAAAAAAAAAAAAAAAAAAAAAAAAAAAAAAAAAAAAAAAAAAAAAAAAAAAAAAAAAAAAAAAAAAAAAAAAAAAAAAAAAAAAAAAAAAAAAAAAAAAAAAAAAAAAAAAAAAAAAAAAAAAAAAAAAAAAAAAAAAAAAAAAAAAAAAAAAAAAAAAAAAAAAAAAAAAAAAAAAAAAAAAAAAAAAAAAAAAAAAAAAAAAAAAAAAAAAAAAAAAAAAAAAAAAAAAAAAAAAAAAAAAAAAAAAAAAAAAAAAAAAAAAAAAAAAAAAAAAAAAAAAAAAAAAAAAAAAAAAAAAAAAAAAAAAAAAAAAAAAAAAAAAAAAAAAAAAAAAAAAAAAAAAAAAAAAAAAAAAAAAAAAAAAAAAAAAAAAAAAAAAAAAAAAAAAAAAAAAAAAAAAAAAAAAAAAAAAAAAAAAAAAAAAAAAAAAAAAAAAAAAAAAAAAAAAAAAAAAAAAAAAAAAAAAAAAAAAAAAAAAAAAAAAAAAAAAAAAAAAAAAAAAAAAAAAAAAAAAAAAAAAAAAAAAAAAAAAAAAAAAAAAAAAAAAAAAAAAAAAAAAAAAAAAAAAAAAAAAAAAAAAAAAAAAAAAAAAAAAAAAAAAAAAAAAAAAAAAAAAAAAAAAAAAAAAAAAAAAAAAAAAAAAAAAAAAAAAAAAAAAAAAAAAAAAAAAAAAAAAAAAAAAAAAAAAAAAAAAAAAAAAAAAAAAAAAAAAAAAAAAAAAAAAAAAAAAAAAAAAAAAAAAAAAAAAAAAAAAAAAAAAAAAAAAAAAAAAAAAAAAAAAAAAAAAAAAAAAAAAAAAAAAAAAAAAAAAAAAAAAAAAAAAAAAAAAAAAAAAAAAAAAAAAAAAAAAAAAAAAAAAAAAAAAAAAAAAAAAAAAAAAAAAAAAAAAAAAAAAAAAAAAAAAAAAAAAAAAAAAAAAAAAAAAAAAAAAAAAAAAAAAAAAAAAAAAAAAAAAAAAAAAAAAAAAAAAAAAAAAAAAAAAAAAAAAAAAAAAAAAAAAAAAAAAAAAAAAAAAAAAAAAAAAAAAAAAAAAAAAAAAAAAAAAAAAAAAAAAAAAAAAAAAAAAAAAAAAAAAAAAAAAAAAAAAAAAAAAAAAAAAAAAAAAAAAAAAAAAAAAAAAAAAAAAAAAAAAAAAAAAAAAAAAAAAAAAAAAAAAAAAAAAAAAAAAAAAAAAAAAAAAAAAAAAAAAAAAAAAAAAAAAAAAAAAAAAAAAAAAAAAAAAAAAAAAAAAAAAAAAAAAAAAAAAAAAAAAAAAAAAAAAAAAAAAAAAAAAAAAAAAAAAAAAAAAAAAAAAAAAAAAAAAAAAAAAAAAAAAAAAAAAAAAAAAAAAAAAAAAAAAAAAAAAAAAAAAAAAAAAAAAAAAAAAAAAAAAAAAAAAAAAAAAAAAAAAAAAAAAAAAAAAAAAAAAAAAAAAAAAAAAAAAAAAAAAAAAAAAAAAAAAAAAAAAAAAAAAAAAAAAAAAAAAAAAAAAAAAAAAAAAAAAAAAAAAAAAAAAAAAAAAAAAAAAAAAAAAAPZYQGfcJM58ODEeu1ycBivczOorWEUfGLtKz8DOc8nMb86MAt1EvIH+vbtwYR2Q9aqmH8HzN3zShWyZJMYcs/pFhRo=</c2pa:manifest></metadata><symbol id="el-seed-solid" viewBox="341.1 125.0 42.3 41.8"><path fill-rule="nonzero" fill="currentColor" fill-opacity="1" d="M 374.371094 137.835938 C 376.082031 139.890625 378.367188 141.964844 379.324219 144.519531 C 380.351562 147.257812 379.757812 150.042969 378.738281 152.570312 C 377.785156 154.933594 376.164062 156.511719 374.207031 157.914062 C 371.6875 159.710938 369.148438 161.757812 366.234375 162.75 C 363.28125 163.753906 360.144531 163.796875 357 163.035156 C 353.871094 162.277344 351.191406 161.078125 349.289062 159.125 C 347.246094 157.039062 346.039062 154.257812 345.308594 151.402344 C 344.597656 148.632812 344.097656 145.59375 344.523438 142.683594 C 344.949219 139.789062 346.363281 137.058594 347.820312 134.585938 C 349.414062 131.894531 351.449219 130.347656 353.675781 129.421875 C 356.125 128.40625 358.792969 127.960938 361.53125 128.625 C 363.996094 129.222656 366.644531 130.269531 368.960938 131.863281 C 371.125 133.355469 372.640625 135.761719 374.371094 137.835938 "/></symbol><symbol id="el-seed-ring" viewBox="158.2 98.4 52.4 51.0"><path fill-rule="nonzero" fill="currentColor" fill-opacity="1" d="M 181.796875 108.691406 C 180.972656 109.003906 180.179688 109.128906 179.457031 109.726562 C 177.984375 110.941406 175.734375 112.761719 173.898438 115.324219 C 172.394531 117.421875 170.871094 119.777344 169.679688 122.066406 C 168.242188 124.824219 166.933594 127.554688 166.75 129.554688 C 166.632812 130.855469 167.539062 132.46875 168.871094 133.871094 C 170.546875 135.632812 173.378906 136.398438 175.820312 137.4375 C 178.726562 138.679688 181.445312 139.652344 183.179688 139.582031 C 185.085938 139.503906 187.429688 139.382812 189.785156 137.949219 C 192.746094 136.148438 195.0625 133.109375 197.289062 130.265625 C 198.820312 129.964844 198.234375 132.570312 199.796875 132.570312 C 201.355469 132.570312 197.867188 132.039062 197.761719 130.484375 C 199.898438 127.75 200.589844 124.355469 200.332031 120.820312 C 200.113281 117.792969 198.769531 114.941406 195.398438 112.1875 C 193.445312 110.59375 191.355469 109.035156 189.011719 108.273438 C 186.460938 107.445312 184.085938 107.824219 181.796875 108.691406 M 188.898438 145.453125 C 187.109375 146.132812 185.171875 146.25 183.457031 146.320312 C 180.75 146.433594 177.023438 145.074219 173.351562 143.515625 C 170.066406 142.117188 166.96875 140.164062 164.730469 137.808594 C 162.136719 135.082031 161.238281 132.203125 161.523438 129.074219 C 161.769531 126.425781 162.664062 123.328125 164.257812 120.117188 C 165.65625 117.304688 166.722656 114.03125 168.53125 111.511719 C 170.71875 108.464844 173.3125 106.050781 175.15625 104.523438 C 177.597656 102.507812 180.511719 102.132812 183.355469 101.875 C 186.230469 101.613281 189.234375 101.390625 192.050781 102.449219 C 194.796875 103.480469 197.230469 105.367188 199.472656 107.199219 C 202.347656 109.546875 204.085938 112.355469 205.292969 115.320312 C 206.585938 118.503906 207.632812 121.84375 206.949219 125.269531 C 206.328125 128.386719 204.808594 131.636719 202.519531 134.566406 L 202.277344 134.378906 C 199.585938 137.816406 196.453125 140.789062 192.847656 142.984375 C 191.449219 143.835938 190.226562 144.949219 188.898438 145.453125 "/></symbol><symbol id="el-leaf-solid" viewBox="1226.4 82.9 180.0 162.5"><path fill-rule="nonzero" fill="currentColor" fill-opacity="1" d="M 1383.3125 128.84375 C 1381.597656 126.242188 1379.835938 123.628906 1377.921875 121.148438 C 1376.011719 118.671875 1373.261719 116.917969 1371.144531 114.628906 C 1369.015625 112.328125 1367.621094 109.28125 1365.273438 107.230469 C 1362.914062 105.167969 1359.847656 104.019531 1357.257812 102.273438 C 1354.671875 100.53125 1352.355469 98.300781 1349.53125 96.9375 C 1346.277344 95.367188 1342.910156 94.042969 1339.507812 93.023438 C 1336.089844 91.996094 1332.472656 91.722656 1328.9375 91.140625 C 1325.433594 90.566406 1321.902344 90.09375 1318.316406 89.839844 C 1314.773438 89.59375 1311.203125 89.53125 1307.613281 89.496094 C 1304.054688 89.460938 1300.492188 90.070312 1296.910156 90.136719 C 1293.335938 90.207031 1289.753906 89.847656 1286.191406 89.917969 C 1282.601562 89.988281 1279.019531 89.976562 1275.46875 89.945312 C 1271.738281 89.910156 1267.96875 90.246094 1264.242188 90.03125 C 1260.515625 89.8125 1256.785156 89.3125 1253.074219 88.914062 C 1249.363281 88.511719 1245.796875 87.027344 1242.109375 86.449219 C 1238.53125 85.882812 1234.625 87.21875 1232.347656 89.535156 C 1230.074219 91.851562 1229.375 95.679688 1229.996094 99.246094 C 1230.535156 102.355469 1231.320312 105.417969 1231.910156 108.515625 C 1232.496094 111.617188 1232.820312 114.765625 1233.476562 117.851562 C 1234.132812 120.9375 1234.992188 123.976562 1235.738281 127.039062 C 1236.484375 130.105469 1236.53125 133.363281 1237.390625 136.398438 C 1238.25 139.433594 1239.902344 142.238281 1240.894531 145.234375 C 1241.882812 148.226562 1242.589844 151.328125 1243.730469 154.269531 C 1244.96875 157.460938 1246.546875 160.527344 1248 163.644531 C 1249.453125 166.75 1250.621094 170.027344 1252.292969 173.023438 C 1253.964844 176.023438 1256.464844 178.523438 1258.363281 181.371094 C 1260.265625 184.234375 1262.082031 187.128906 1264.21875 189.800781 C 1266.367188 192.484375 1268.582031 195.09375 1270.972656 197.546875 C 1273.363281 200.003906 1276.171875 201.972656 1278.8125 204.160156 C 1281.445312 206.34375 1284.03125 208.53125 1286.917969 210.410156 C 1289.882812 212.335938 1292.707031 214.417969 1295.820312 215.988281 C 1298.957031 217.574219 1301.929688 219.585938 1305.183594 220.886719 C 1308.4375 222.1875 1312.035156 222.617188 1315.371094 223.710938 C 1318.699219 224.800781 1322.214844 225.242188 1325.59375 226.207031 C 1328.960938 227.167969 1332.300781 228.214844 1335.691406 229.128906 C 1339.078125 230.039062 1342.5 230.835938 1345.878906 231.773438 C 1349.261719 232.714844 1352.546875 234.03125 1355.886719 235.074219 C 1359.238281 236.121094 1362.675781 236.992188 1365.953125 238.222656 C 1371.789062 240.410156 1376.390625 242.382812 1380.011719 242.167969 C 1379.101562 238.988281 1378.15625 235.378906 1376.984375 232.355469 C 1375.792969 229.273438 1374.609375 226.160156 1373.195312 223.246094 C 1371.753906 220.265625 1369.246094 217.871094 1367.625 215.078125 C 1365.957031 212.203125 1363.976562 209.617188 1362.175781 206.953125 C 1360.304688 204.183594 1359.484375 200.726562 1357.535156 198.195312 C 1355.476562 195.523438 1352.851562 193.40625 1350.777344 191.015625 C 1348.539062 188.429688 1346.6875 185.65625 1344.523438 183.414062 C 1342.089844 180.890625 1339.285156 179.03125 1337.074219 176.96875 C 1334.359375 174.4375 1332.285156 171.765625 1330.140625 169.972656 C 1325.527344 166.113281 1322.0625 164.613281 1321.945312 164.53125 C 1320.339844 163.425781 1319.894531 160.945312 1321 159.335938 C 1322.105469 157.726562 1324.523438 157.328125 1326.136719 158.429688 C 1326.613281 158.757812 1329.722656 160.867188 1334.296875 164.644531 C 1336.546875 166.503906 1338.738281 169.230469 1341.585938 171.863281 C 1343.898438 174.007812 1346.746094 175.996094 1349.292969 178.625 C 1351.554688 180.957031 1354.074219 183.316406 1356.414062 186.015625 C 1358.578125 188.511719 1360.605469 191.296875 1362.757812 194.089844 C 1364.789062 196.734375 1366.3125 199.84375 1368.265625 202.742188 C 1370.136719 205.527344 1371.847656 208.453125 1373.589844 211.464844 C 1375.273438 214.378906 1377.691406 216.960938 1379.199219 220.082031 C 1380.667969 223.121094 1382.167969 226.238281 1383.417969 229.464844 C 1384.640625 232.613281 1385.53125 235.683594 1386.5 239.003906 C 1388.28125 237.609375 1389.457031 235.808594 1391.117188 233.128906 C 1392.339844 231.160156 1393.417969 228.785156 1394.722656 226.054688 C 1396.195312 222.980469 1397.414062 219.855469 1398.472656 216.617188 C 1399.53125 213.378906 1400.710938 210.195312 1401.363281 206.847656 C 1402.015625 203.503906 1402.839844 200.160156 1403.089844 196.761719 C 1403.34375 193.363281 1403.355469 189.917969 1403.214844 186.519531 C 1403.070312 183.089844 1403.132812 179.597656 1402.625 176.214844 C 1402.113281 172.828125 1400.21875 169.714844 1399.371094 166.394531 C 1398.527344 163.082031 1398.425781 159.542969 1397.273438 156.3125 C 1396.125 153.089844 1394.371094 150.09375 1392.945312 146.976562 C 1391.527344 143.863281 1390.007812 140.800781 1388.34375 137.808594 C 1386.675781 134.8125 1385.195312 131.699219 1383.3125 128.84375 "/></symbol><symbol id="el-leaf-ring" viewBox="1078.1 93.6 137.5 213.6"><path fill-rule="nonzero" fill="currentColor" fill-opacity="1" d="M 1148.972656 97.273438 C 1148.972656 97.273438 1148.902344 97.585938 1148.902344 97.585938 C 1144.601562 98.585938 1141.492188 101.78125 1139.25 105.597656 C 1137.59375 108.421875 1135.023438 110.6875 1133.222656 113.433594 C 1131.425781 116.175781 1130.410156 119.46875 1128.480469 122.117188 C 1126.546875 124.773438 1123.921875 126.90625 1121.871094 129.453125 C 1120.40625 131.269531 1118.726562 132.960938 1117.183594 134.78125 C 1115.648438 136.59375 1114.046875 138.351562 1112.519531 140.125 C 1110.476562 142.5 1108.746094 145.171875 1106.722656 147.589844 C 1104.703125 150 1102.792969 152.511719 1100.871094 155.003906 C 1098.945312 157.496094 1097.179688 160.097656 1095.425781 162.707031 C 1093.671875 165.320312 1091.503906 167.703125 1090 170.46875 C 1088.5 173.222656 1087.882812 176.414062 1086.714844 179.355469 C 1085.570312 182.246094 1084.65625 185.199219 1083.902344 188.304688 C 1083.191406 191.230469 1082.242188 194.152344 1081.9375 197.261719 C 1081.648438 200.242188 1081.085938 203.324219 1081.171875 206.460938 C 1081.25 209.445312 1081.8125 212.511719 1082.230469 215.628906 C 1082.625 218.585938 1083.496094 221.546875 1084.191406 224.617188 C 1084.851562 227.527344 1085.269531 230.59375 1086.203125 233.601562 C 1087.191406 236.789062 1088.546875 239.820312 1089.746094 242.851562 C 1090.96875 245.953125 1092.402344 248.921875 1093.839844 251.847656 C 1095.3125 254.839844 1097.085938 257.613281 1098.769531 260.402344 C 1100.492188 263.257812 1102.546875 265.800781 1104.480469 268.421875 C 1106.457031 271.105469 1108.332031 273.769531 1110.519531 276.191406 C 1112.75 278.660156 1114.835938 281.207031 1117.273438 283.382812 C 1119.785156 285.628906 1122.417969 287.699219 1125.140625 289.613281 C 1127.894531 291.554688 1130.746094 293.300781 1133.679688 294.878906 C 1136.648438 296.476562 1139.476562 298.410156 1142.582031 299.617188 C 1145.71875 300.835938 1149.019531 301.699219 1152.253906 302.496094 C 1155.558594 303.308594 1158.441406 303.386719 1160.890625 303.671875 C 1164.285156 304.066406 1167.011719 304.183594 1169.53125 303.625 C 1169.550781 303.621094 1169.46875 303.164062 1169.492188 303.160156 C 1171.234375 302.753906 1172.4375 301.710938 1173.316406 300.179688 C 1173.816406 300.179688 1174.566406 299.964844 1175.042969 299.851562 C 1176.277344 299.566406 1177.480469 299.367188 1178.359375 298.414062 C 1179.9375 296.710938 1181.695312 294.835938 1183.015625 292.105469 C 1183.996094 290.078125 1185.003906 287.667969 1185.976562 284.8125 C 1186.917969 282.050781 1187.285156 279.03125 1188.398438 276.273438 C 1189.5 273.542969 1190.84375 270.890625 1192.035156 268.1875 C 1193.230469 265.472656 1194.269531 262.691406 1195.476562 260.023438 C 1196.644531 257.449219 1197.554688 254.75 1198.707031 252.136719 C 1199.851562 249.550781 1201.953125 247.359375 1203.035156 244.71875 C 1204.105469 242.097656 1205.210938 239.453125 1206.171875 236.773438 C 1207.125 234.105469 1207.171875 231.128906 1207.964844 228.390625 C 1208.75 225.675781 1210.09375 223.082031 1210.667969 220.285156 C 1211.234375 217.523438 1211.996094 214.726562 1212.3125 211.875 C 1212.628906 209.03125 1212.421875 206.082031 1212.449219 203.167969 C 1212.480469 200.3125 1212.308594 197.40625 1212.0625 194.496094 C 1211.824219 191.65625 1211.117188 188.832031 1210.621094 185.953125 C 1210.136719 183.144531 1209.429688 180.359375 1208.703125 177.523438 C 1208 174.765625 1207.109375 172.042969 1206.179688 169.265625 C 1205.273438 166.566406 1204.78125 163.671875 1203.660156 160.964844 C 1202.574219 158.332031 1200.972656 155.890625 1199.6875 153.257812 C 1198.4375 150.699219 1196.980469 148.222656 1195.546875 145.671875 C 1194.097656 143.101562 1192.898438 140.417969 1191.34375 137.953125 C 1189.769531 135.460938 1187.746094 133.296875 1186.085938 130.90625 C 1184.40625 128.480469 1183.5625 125.472656 1181.816406 123.144531 C 1180.042969 120.78125 1177.386719 119.132812 1175.570312 116.859375 C 1173.726562 114.546875 1172.109375 112.09375 1170.25 109.867188 C 1168.347656 107.59375 1166.1875 105.589844 1164.300781 103.394531 C 1162.347656 101.132812 1160.277344 99.214844 1157.546875 98.328125 C 1154.820312 97.441406 1151.871094 96.609375 1148.957031 97.285156 C 1148.652344 97.292969 1148.972656 97.273438 1148.972656 97.273438 M 1150.285156 103.53125 C 1153.59375 102.761719 1157.183594 104.53125 1159.652344 107.398438 C 1161.519531 109.566406 1163.984375 111.230469 1165.816406 113.425781 C 1167.652344 115.621094 1168.703125 118.457031 1170.484375 120.691406 C 1172.269531 122.925781 1174.84375 124.550781 1176.5625 126.835938 C 1178.28125 129.125 1179.328125 131.902344 1180.960938 134.25 C 1182.59375 136.597656 1183.996094 139.082031 1185.523438 141.496094 C 1187.050781 143.914062 1188.453125 146.378906 1189.855469 148.875 C 1191.378906 151.578125 1193.191406 154.117188 1194.539062 156.929688 C 1195.878906 159.730469 1197.226562 162.539062 1198.367188 165.433594 C 1199.507812 168.328125 1200.648438 171.234375 1201.554688 174.203125 C 1202.460938 177.1875 1202.664062 180.332031 1203.304688 183.367188 C 1203.953125 186.417969 1205.261719 189.351562 1205.605469 192.4375 C 1205.953125 195.53125 1206.183594 198.671875 1206.199219 201.78125 C 1206.214844 204.886719 1205.601562 207.988281 1205.253906 211.085938 C 1204.898438 214.273438 1203.910156 217.296875 1203.222656 220.382812 C 1202.527344 223.492188 1201.988281 226.605469 1201.027344 229.632812 C 1200.070312 232.660156 1199.300781 235.757812 1198.148438 238.726562 C 1197 241.683594 1195.410156 244.464844 1194.140625 247.386719 C 1192.875 250.300781 1191.820312 253.308594 1190.511719 256.207031 C 1189.199219 259.105469 1187.984375 262.046875 1186.699219 264.953125 C 1185.410156 267.863281 1184.363281 270.867188 1183.175781 273.808594 C 1181.980469 276.761719 1181.140625 279.8125 1180.117188 282.816406 C 1178.292969 288.164062 1175.9375 292.089844 1173.703125 294.503906 C 1172 292.039062 1170.378906 289.152344 1168.933594 286.59375 C 1167.460938 283.984375 1166.097656 281.339844 1164.867188 278.675781 C 1163.609375 275.945312 1162.457031 273.199219 1161.433594 270.457031 C 1160.378906 267.632812 1159.988281 264.644531 1159.15625 261.847656 C 1158.289062 258.941406 1157.375 256.132812 1156.722656 253.308594 C 1156.035156 250.328125 1154.996094 247.507812 1154.511719 244.679688 C 1153.992188 241.621094 1153.789062 238.640625 1153.464844 235.835938 C 1153.097656 232.679688 1152.378906 229.734375 1152.203125 227.003906 C 1151.992188 223.640625 1151.8125 220.621094 1151.789062 218.085938 C 1151.742188 212.632812 1151.996094 209.28125 1152.007812 209.152344 C 1152.15625 207.390625 1151.351562 205.953125 1149.589844 205.800781 C 1149.246094 205.769531 1148.832031 205.371094 1148.511719 205.449219 C 1147.199219 205.753906 1145.84375 207.195312 1145.722656 208.613281 C 1145.675781 209.136719 1146.128906 212.554688 1146.144531 217.929688 C 1146.152344 220.578125 1146.039062 223.703125 1146.246094 227.210938 C 1146.417969 230.066406 1146.867188 233.140625 1147.246094 236.441406 C 1147.578125 239.367188 1148.285156 242.378906 1148.828125 245.574219 C 1149.332031 248.523438 1148.890625 251.777344 1149.613281 254.890625 C 1150.296875 257.835938 1151.023438 260.890625 1151.929688 263.925781 C 1152.804688 266.839844 1154.625 269.507812 1155.730469 272.460938 C 1156.804688 275.316406 1157.375 278.441406 1158.695312 281.292969 C 1159.980469 284.070312 1161.136719 287.003906 1162.679688 289.738281 C 1164.183594 292.40625 1166.125 294.714844 1167.894531 297.304688 C 1165.890625 297.75 1163.804688 297.59375 1160.96875 297.214844 C 1158.886719 296.941406 1156.476562 296.800781 1153.816406 296.144531 C 1150.816406 295.410156 1147.804688 294.566406 1144.925781 293.445312 C 1142.050781 292.324219 1139.171875 291.078125 1136.453125 289.613281 C 1133.734375 288.144531 1131.382812 286.039062 1128.859375 284.261719 C 1126.328125 282.484375 1123.617188 280.910156 1121.316406 278.855469 C 1119 276.785156 1116.683594 274.65625 1114.605469 272.355469 C 1112.527344 270.046875 1110.824219 267.398438 1108.984375 264.894531 C 1107.152344 262.394531 1105.011719 260.050781 1103.410156 257.386719 C 1101.816406 254.730469 1101.285156 251.480469 1099.921875 248.6875 C 1098.554688 245.902344 1096.308594 243.492188 1095.171875 240.605469 C 1094.03125 237.714844 1093.285156 234.652344 1092.363281 231.691406 C 1091.53125 228.992188 1090.445312 226.3125 1089.808594 223.546875 C 1089.171875 220.78125 1089.128906 217.875 1088.742188 215.070312 C 1088.351562 212.257812 1088.785156 209.398438 1088.695312 206.574219 C 1088.609375 203.738281 1087.902344 200.902344 1088.171875 198.082031 C 1088.4375 195.269531 1089.003906 192.46875 1089.675781 189.703125 C 1090.445312 186.519531 1091.519531 183.460938 1092.761719 180.488281 C 1094.011719 177.503906 1095.015625 174.347656 1096.644531 171.535156 C 1098.253906 168.746094 1100.585938 166.367188 1102.476562 163.710938 C 1104.339844 161.085938 1105.828125 158.128906 1107.867188 155.59375 C 1109.890625 153.078125 1112.34375 150.886719 1114.453125 148.417969 C 1116.554688 145.953125 1119.070312 143.835938 1121.167969 141.378906 C 1123.285156 138.90625 1125.074219 136.167969 1127.09375 133.664062 C 1129.214844 131.027344 1130.90625 128.070312 1132.898438 125.332031 C 1134.886719 122.59375 1137.054688 119.992188 1138.90625 117.160156 C 1140.761719 114.328125 1143.140625 111.808594 1144.855469 108.890625 C 1146.261719 106.492188 1148.089844 105.117188 1150.523438 104.550781 "/></symbol><symbol id="el-beret-ring" viewBox="74.5 468.7 232.1 146.0"><path fill-rule="nonzero" fill="currentColor" fill-opacity="1" d="M 184.714844 472.378906 C 184.714844 472.378906 184.761719 472.234375 184.761719 472.234375 C 183.035156 471.671875 181.238281 471.726562 179.40625 472.09375 C 177.289062 472.464844 175.605469 473.25 174.015625 474.105469 C 172.199219 475.078125 170.207031 475.730469 169.101562 477.316406 C 166.789062 480.636719 167.792969 485.289062 169.734375 487.769531 C 171.050781 489.453125 171.601562 489.023438 172.917969 490.707031 C 173.671875 491.667969 173.953125 492.671875 174.554688 493.804688 C 172.121094 494.332031 169.757812 494.632812 167.378906 495.285156 C 164.976562 495.941406 162.679688 496.960938 160.339844 497.738281 C 157.980469 498.527344 155.660156 499.429688 153.367188 500.339844 C 151.058594 501.257812 148.890625 502.488281 146.648438 503.527344 C 144.394531 504.574219 142.230469 505.757812 140.054688 506.925781 C 137.863281 508.101562 135.761719 509.382812 133.660156 510.679688 C 131.542969 511.980469 129.234375 512.972656 127.210938 514.390625 C 125.179688 515.816406 123.414062 517.585938 121.480469 519.128906 C 119.539062 520.671875 117.730469 522.34375 115.890625 524 C 114.050781 525.660156 112.082031 527.167969 110.347656 528.9375 C 108.617188 530.707031 107.238281 532.785156 105.621094 534.660156 C 104.003906 536.535156 101.78125 537.925781 100.285156 539.902344 C 97.050781 544.1875 97.738281 544.707031 94.503906 548.988281 C 92.929688 551.078125 91.285156 552.929688 89.9375 554.875 C 88.457031 557.015625 87.339844 559.21875 86.097656 561.253906 C 84.757812 563.445312 83.210938 565.386719 82.09375 567.53125 C 81.101562 569.441406 79.796875 571.007812 79.148438 572.714844 C 78.421875 574.640625 78.476562 576.6875 78.097656 578.585938 C 77.65625 580.8125 77.476562 583 77.691406 585.164062 C 77.910156 587.390625 78.425781 589.546875 79.265625 591.578125 C 80.109375 593.625 81.574219 595.273438 82.972656 597 C 84.351562 598.707031 85.597656 600.5625 87.445312 601.832031 C 89.238281 603.0625 91.398438 603.59375 93.558594 604.296875 C 94.066406 604.464844 94.472656 604.96875 94.996094 605.097656 C 97.246094 605.664062 99.480469 606.449219 101.773438 606.683594 C 104.074219 606.917969 106.421875 606.683594 108.730469 606.640625 C 111.046875 606.59375 113.320312 606.0625 115.605469 605.792969 C 117.917969 605.519531 120.226562 605.386719 122.472656 604.945312 C 124.777344 604.492188 127.167969 604.496094 129.359375 603.929688 C 131.664062 603.328125 133.820312 602.585938 135.949219 601.933594 C 136.726562 602.238281 137.347656 602.578125 138.152344 602.839844 C 140.273438 603.53125 142.722656 603.390625 145.253906 603.84375 C 147.785156 604.300781 150.253906 605.007812 152.742188 605.394531 C 155.3125 605.792969 157.90625 605.691406 160.367188 606.023438 C 162.992188 606.378906 165.445312 607.367188 167.863281 607.65625 C 170.5625 607.980469 173.097656 608.40625 175.433594 608.660156 C 177.921875 608.929688 180.484375 608.410156 182.964844 608.644531 C 185.457031 608.878906 187.941406 609.054688 190.429688 609.25 C 192.921875 609.445312 195.40625 609.609375 197.894531 609.769531 C 200.390625 609.929688 202.835938 610.957031 205.324219 611.078125 C 207.824219 611.199219 210.34375 610.703125 212.832031 610.785156 C 215.335938 610.871094 217.828125 611.007812 220.320312 611.050781 C 222.824219 611.097656 225.320312 611.246094 227.808594 611.25 C 230.3125 611.257812 232.816406 611.636719 235.304688 611.601562 C 237.808594 611.566406 240.308594 611.484375 242.796875 611.40625 C 245.300781 611.332031 247.804688 611.3125 250.292969 611.195312 C 253.078125 611.0625 255.796875 610.75 258.464844 610.496094 C 261.203125 610.238281 263.820312 609.253906 266.511719 608.855469 C 266.644531 608.835938 266.925781 609.585938 267.054688 609.558594 C 268.25 609.28125 268.203125 609.082031 269.398438 608.808594 C 271.347656 608.359375 272.769531 607.019531 273.976562 605.464844 C 274.058594 605.363281 274.351562 605.414062 274.425781 605.304688 C 275.589844 603.535156 276.234375 601.480469 276.878906 599.328125 C 277.464844 597.382812 278.011719 595.316406 278.1875 593.007812 C 278.234375 592.394531 277.976562 591.765625 278.03125 591.167969 C 278.164062 589.742188 278.667969 588.339844 278.6875 586.804688 C 280.234375 585.332031 281.78125 583.929688 283.164062 582.414062 C 284.609375 580.835938 285.71875 579.023438 287.019531 577.441406 C 288.382812 575.789062 289.546875 574.046875 290.796875 572.429688 C 292.097656 570.742188 293.402344 568.820312 294.761719 566.75 C 295.984375 564.882812 297.429688 563.050781 298.507812 560.910156 C 299.53125 558.878906 300.550781 556.78125 301.285156 554.539062 C 301.992188 552.363281 302.953125 550.148438 303.246094 547.808594 C 303.527344 545.558594 303.074219 543.191406 302.847656 540.8125 C 302.558594 537.757812 301.949219 534.75 300.546875 532.066406 C 299.183594 529.46875 297.042969 527.273438 294.710938 525.164062 C 294.410156 524.890625 293.894531 524.851562 293.601562 524.578125 C 292.539062 523.589844 291.398438 522.484375 289.960938 521.472656 C 287.984375 520.085938 287.992188 520.074219 286.019531 518.691406 C 285.96875 518.65625 286.210938 518.207031 286.164062 518.175781 C 283.824219 516.648438 283.496094 517.152344 281.160156 515.628906 C 278.820312 514.101562 278.878906 514.015625 276.539062 512.488281 C 274.726562 511.304688 272.886719 510.082031 270.945312 508.898438 C 269.085938 507.761719 267.109375 506.78125 265.121094 505.703125 C 263.199219 504.660156 261.527344 503.066406 259.46875 502.128906 C 257.351562 501.164062 255.21875 500.175781 253.039062 499.328125 C 250.859375 498.480469 248.570312 497.910156 246.363281 497.1875 C 244.027344 496.425781 241.664062 495.710938 239.269531 495.085938 C 236.894531 494.464844 234.515625 493.789062 232.085938 493.300781 C 229.679688 492.820312 227.230469 492.492188 224.773438 492.144531 C 222.347656 491.796875 219.855469 491.9375 217.382812 491.71875 C 214.945312 491.507812 212.5 491.367188 210.019531 491.277344 C 207.574219 491.1875 205.125 491.203125 202.640625 491.238281 C 200.195312 491.269531 197.75 491.378906 195.269531 491.53125 C 195.238281 491.535156 195.296875 490.792969 195.285156 490.789062 C 195.269531 490.785156 194.667969 491.117188 194.65625 491.003906 C 194.363281 488.570312 194.230469 486.144531 193.5 483.832031 C 192.765625 481.519531 191.691406 479.347656 190.53125 477.1875 C 189.25 474.804688 187.367188 472.773438 184.851562 471.953125 L 185.003906 472.210938 C 184.964844 472.328125 184.714844 472.378906 184.714844 472.378906 M 183.292969 476.734375 C 184.515625 477.132812 185.589844 478.175781 186.289062 479.46875 C 187.292969 481.335938 188.277344 483.265625 188.914062 485.285156 C 189.554688 487.304688 190.238281 489.398438 190.492188 491.507812 C 190.742188 493.597656 191.601562 495.675781 193.492188 496.289062 C 194.105469 496.488281 194.902344 496.65625 195.582031 496.613281 C 197.964844 496.464844 200.304688 495.675781 202.671875 495.640625 C 205.054688 495.605469 207.421875 496.15625 209.789062 496.242188 C 212.167969 496.324219 214.503906 496.703125 216.867188 496.910156 C 219.234375 497.117188 221.609375 497.078125 223.960938 497.414062 C 226.308594 497.746094 228.648438 498.09375 230.980469 498.5625 C 233.304688 499.027344 235.679688 499.292969 237.980469 499.898438 C 240.273438 500.496094 242.585938 501.082031 244.851562 501.824219 C 246.972656 502.515625 249.113281 503.210938 251.210938 504.027344 C 253.285156 504.835938 255.183594 506.109375 257.234375 507.042969 C 259.207031 507.941406 261.273438 508.574219 263.128906 509.582031 C 265.011719 510.605469 266.917969 511.59375 268.738281 512.710938 C 270.546875 513.816406 272.195312 515.203125 274 516.382812 C 276.339844 517.90625 276.550781 517.582031 278.886719 519.109375 C 281.226562 520.632812 280.773438 521.3125 283.089844 522.875 C 285.089844 524.226562 285.554688 523.550781 287.527344 524.9375 C 289.039062 526 290.164062 527.472656 291.515625 528.695312 C 293.332031 530.339844 295.113281 532.144531 296.21875 534.234375 C 297.320312 536.316406 297.695312 538.8125 297.925781 541.277344 C 298.175781 543.890625 297.476562 546.382812 296.984375 548.902344 C 296.496094 551.414062 296.285156 554.023438 295.242188 556.414062 C 294.21875 558.765625 292.890625 561.015625 291.515625 563.210938 C 290.136719 565.414062 288.59375 567.515625 287.039062 569.53125 C 285.644531 571.335938 284.574219 573.371094 283.140625 575.09375 C 281.703125 576.828125 279.828125 578.1875 278.273438 579.835938 C 276.75 581.457031 275.601562 583.222656 273.894531 584.757812 C 274.117188 587.480469 273.382812 589.90625 273.175781 592.625 C 272.910156 596.128906 271.738281 599.3125 269.800781 602.246094 C 269.296875 602.894531 268.984375 603.40625 268.199219 603.585938 C 267.003906 603.859375 267.082031 604.269531 265.878906 604.492188 C 263.242188 604.882812 260.582031 604.964844 257.953125 605.214844 C 255.34375 605.460938 252.6875 605.097656 250.007812 605.222656 C 247.539062 605.339844 245.082031 605.550781 242.613281 605.625 C 240.144531 605.703125 237.675781 605.683594 235.207031 605.71875 C 232.734375 605.753906 230.269531 606.496094 227.800781 606.492188 C 225.328125 606.488281 222.859375 606.167969 220.390625 606.125 C 217.917969 606.078125 215.433594 606.484375 212.960938 606.402344 C 210.492188 606.316406 208.050781 605.542969 205.582031 605.421875 C 203.117188 605.300781 200.660156 605.019531 198.195312 604.859375 C 195.730469 604.703125 193.207031 605.296875 190.746094 605.097656 C 188.28125 604.902344 185.8125 604.726562 183.347656 604.496094 C 180.890625 604.265625 178.425781 604.03125 175.964844 603.761719 C 173.457031 603.488281 171.054688 602.324219 168.5625 602.027344 C 166.058594 601.730469 163.488281 602.015625 160.996094 601.675781 C 158.5 601.339844 156.019531 600.910156 153.527344 600.523438 C 151.046875 600.136719 148.582031 599.601562 146.097656 599.152344 C 143.914062 598.761719 141.96875 597.890625 139.980469 597.242188 C 138.722656 596.835938 137.367188 596.375 136.164062 595.828125 C 134.042969 596.496094 131.769531 597.082031 129.5625 597.679688 C 127.398438 598.273438 125.246094 598.925781 123.027344 599.398438 C 120.816406 599.871094 118.699219 600.925781 116.464844 601.226562 C 114.214844 601.535156 111.894531 600.957031 109.652344 601.042969 C 107.375 601.128906 105.148438 601.292969 102.917969 601.09375 C 100.652344 600.894531 98.359375 600.925781 96.175781 600.378906 C 95.765625 600.277344 95.433594 599.902344 95.035156 599.769531 C 92.9375 599.085938 90.890625 598.28125 89.234375 596.960938 C 87.542969 595.605469 86.21875 593.824219 85.121094 591.984375 C 84.015625 590.144531 82.933594 588.160156 82.554688 586.023438 C 82.1875 583.949219 82.5625 581.738281 82.992188 579.558594 C 83.675781 576.125 85.050781 573.125 86.710938 569.929688 C 87.824219 567.789062 88.710938 565.550781 89.949219 563.523438 C 91.199219 561.480469 92.386719 559.390625 93.75 557.421875 C 95.105469 555.464844 96.449219 553.472656 97.898438 551.550781 C 101.132812 547.269531 101.378906 547.453125 104.613281 543.171875 C 106.121094 541.175781 107.777344 539.308594 109.402344 537.433594 C 111.039062 535.542969 113.03125 534.015625 114.78125 532.25 C 116.535156 530.476562 117.984375 528.398438 119.84375 526.75 C 121.710938 525.097656 123.808594 523.726562 125.773438 522.203125 C 127.742188 520.675781 129.558594 518.9375 131.617188 517.539062 C 133.679688 516.144531 135.628906 514.53125 137.777344 513.265625 C 139.917969 512 142.144531 510.816406 144.363281 509.683594 C 146.578125 508.550781 148.859375 507.488281 151.144531 506.488281 C 153.421875 505.492188 155.933594 505.03125 158.273438 504.167969 C 160.605469 503.304688 162.789062 501.941406 165.175781 501.214844 C 167.554688 500.488281 170.007812 499.929688 172.433594 499.339844 C 174.847656 498.75 177.3125 498.261719 179.769531 497.808594 C 180.792969 497.621094 180.988281 497.070312 180.632812 496.089844 C 179.554688 493.101562 178.808594 490.15625 176.839844 487.636719 C 175.519531 485.953125 175.585938 485.902344 174.269531 484.21875 C 173.488281 483.222656 172.78125 481.601562 173.585938 480.441406 C 175.105469 478.261719 177.734375 477.316406 180.3125 476.875 C 181.304688 476.667969 182.25 476.828125 183.164062 477.128906 "/></symbol><symbol id="el-beret-solid" viewBox="244.7 590.1 236.2 157.6"><path fill-rule="nonzero" fill="currentColor" fill-opacity="1" d="M 477.367188 684.601562 C 477.671875 681.554688 477.917969 678.574219 477.0625 675.671875 C 476.230469 672.855469 475.167969 669.90625 473.285156 667.386719 C 473.042969 667.0625 472.332031 667.089844 472.09375 666.765625 C 471.242188 665.589844 470.628906 663.953125 469.414062 662.683594 C 467.746094 660.941406 467.75 660.9375 466.078125 659.195312 C 466.039062 659.152344 466.128906 658.960938 466.089844 658.917969 C 464.09375 656.96875 464.035156 657.027344 462.039062 655.078125 C 460.039062 653.128906 459.75 653.425781 457.753906 651.476562 C 456.203125 649.964844 454.269531 648.785156 452.597656 647.246094 C 450.992188 645.769531 449.5 644.128906 447.757812 642.683594 C 446.078125 641.289062 444.347656 639.917969 442.511719 638.601562 C 440.621094 637.246094 438.808594 635.757812 436.839844 634.503906 C 434.863281 633.25 432.855469 632.050781 430.828125 630.914062 C 428.683594 629.714844 426.292969 628.996094 424.066406 627.917969 C 421.855469 626.847656 419.847656 625.332031 417.558594 624.382812 C 415.292969 623.441406 412.945312 622.671875 410.605469 621.851562 C 408.292969 621.042969 406.046875 619.9375 403.664062 619.242188 C 401.3125 618.558594 398.71875 618.75 396.300781 618.179688 C 393.917969 617.621094 391.585938 616.816406 389.140625 616.367188 C 386.734375 615.925781 384.292969 615.644531 381.828125 615.316406 C 381.796875 615.3125 381.746094 615.144531 381.734375 615.136719 C 381.71875 615.128906 382.175781 614.984375 382.1875 614.871094 C 382.371094 612.421875 381.632812 609.976562 381.363281 607.566406 C 381.09375 605.15625 381.289062 602.601562 380.566406 600.257812 C 379.773438 597.671875 377.371094 596.089844 375.0625 594.796875 C 373.480469 593.910156 371.882812 593.414062 370.015625 593.421875 C 367.867188 593.371094 365.894531 593.128906 364.167969 593.65625 C 362.195312 594.261719 360.867188 595.683594 359.476562 597.023438 C 356.566406 599.832031 356.242188 603.902344 357.664062 606.707031 C 358.632812 608.617188 358.875 608.492188 359.839844 610.402344 C 360.394531 611.492188 361.070312 613.078125 361.441406 614.304688 C 358.953125 614.351562 356.246094 614.410156 353.785156 614.585938 C 351.304688 614.765625 348.824219 614.742188 346.378906 615.054688 C 343.910156 615.371094 341.5 615.933594 339.074219 616.378906 C 336.628906 616.832031 334.089844 616.800781 331.691406 617.386719 C 329.277344 617.976562 327.058594 619.242188 324.699219 619.96875 C 322.324219 620.695312 320.042969 621.601562 317.726562 622.464844 C 315.398438 623.332031 313.09375 624.167969 310.832031 625.167969 C 308.5625 626.171875 306.34375 627.222656 304.148438 628.355469 C 301.945312 629.496094 299.347656 629.933594 297.226562 631.203125 C 295.097656 632.472656 293.535156 634.625 291.492188 636.023438 C 289.449219 637.425781 287.140625 638.445312 285.191406 639.972656 C 283.242188 641.5 281.53125 643.308594 279.683594 644.960938 C 275.679688 648.53125 275.296875 648.105469 271.292969 651.679688 C 269.34375 653.421875 267.566406 655.167969 265.867188 656.816406 C 263.996094 658.628906 262.734375 660.847656 261.117188 662.601562 C 259.378906 664.492188 257.351562 666 255.839844 667.886719 C 254.5 669.570312 253.253906 671.101562 252.289062 672.652344 C 251.199219 674.394531 250.140625 676.089844 249.402344 677.878906 C 248.535156 679.976562 248.234375 682.304688 248.023438 684.46875 C 247.808594 686.691406 247.703125 689.027344 248.136719 691.1875 C 248.566406 693.359375 250.148438 695.167969 251.183594 697.136719 C 252.207031 699.078125 253.019531 701.195312 254.585938 702.796875 C 256.101562 704.351562 257.910156 705.71875 259.890625 706.828125 C 260.359375 707.09375 260.761719 707.535156 261.246094 707.765625 C 263.347656 708.753906 265.601562 709.449219 267.804688 710.121094 C 270.019531 710.796875 272.324219 711.15625 274.597656 711.5625 C 276.878906 711.964844 279.203125 711.949219 281.496094 712.128906 C 283.820312 712.3125 286.113281 712.222656 288.402344 712.222656 C 290.75 712.226562 293.050781 712.242188 295.308594 712.105469 C 297.6875 711.96875 300.039062 711.847656 302.257812 711.625 C 302.960938 712.074219 303.902344 712.347656 304.640625 712.761719 C 306.585938 713.851562 308.308594 715.648438 310.703125 716.589844 C 313.097656 717.527344 315.613281 718.128906 317.972656 718.992188 C 320.421875 719.882812 322.851562 720.683594 325.199219 721.488281 C 327.703125 722.34375 330.007812 723.550781 332.320312 724.304688 C 334.910156 725.144531 337.46875 725.5625 339.710938 726.265625 C 342.101562 727.011719 344.644531 727.230469 347.03125 727.941406 C 349.429688 728.652344 351.628906 730.039062 354.027344 730.710938 C 356.4375 731.390625 359.042969 731.320312 361.453125 731.960938 C 363.871094 732.601562 366.164062 733.703125 368.582031 734.304688 C 371.011719 734.910156 373.402344 735.660156 375.828125 736.226562 C 378.265625 736.792969 380.71875 737.28125 383.152344 737.808594 C 385.597656 738.339844 388.042969 738.875 390.480469 739.363281 C 392.9375 739.855469 395.488281 739.796875 397.9375 740.246094 C 400.402344 740.699219 402.714844 741.964844 405.171875 742.375 C 407.644531 742.785156 410.144531 742.976562 412.605469 743.34375 C 415.367188 743.753906 418.152344 743.328125 420.820312 743.597656 C 423.554688 743.871094 426.210938 744.609375 428.929688 744.742188 C 429.0625 744.75 429.1875 744.378906 429.324219 744.375 C 430.546875 744.335938 430.546875 744.28125 431.769531 744.246094 C 433.773438 744.183594 435.851562 744.230469 437.335938 742.941406 C 437.433594 742.855469 437.445312 742.632812 437.539062 742.539062 C 439.027344 741.03125 439.769531 738.925781 440.820312 736.941406 C 441.773438 735.144531 442.789062 733.285156 443.410156 731.050781 C 443.574219 730.460938 443.832031 729.90625 444.003906 729.328125 C 444.410156 727.957031 445.074219 726.765625 445.394531 725.261719 C 447.199219 724.117188 448.570312 722.597656 450.222656 721.382812 C 451.945312 720.113281 453.988281 719.316406 455.570312 718.015625 C 457.226562 716.65625 458.628906 715.050781 460.164062 713.707031 C 461.769531 712.304688 463.714844 710.902344 465.449219 709.132812 C 467.011719 707.539062 468.179688 705.421875 469.652344 703.535156 C 471.050781 701.742188 471.992188 699.617188 473.148438 697.558594 C 474.265625 695.566406 475.597656 693.667969 476.339844 691.425781 C 477.054688 689.273438 477.128906 686.980469 477.367188 684.601562 "/></symbol><symbol id="el-flower-ring" viewBox="1024.6 491.1 219.5 225.9"><path fill-rule="nonzero" fill="currentColor" fill-opacity="1" d="M 1233.144531 605.628906 C 1232.675781 608.945312 1232.597656 612.300781 1231.511719 615.273438 C 1230.34375 618.480469 1228.167969 620.972656 1226.207031 623.414062 C 1224.128906 626 1222.019531 628.382812 1218.96875 629.683594 C 1216.199219 630.863281 1213.0625 630.832031 1209.421875 630.609375 C 1206.492188 630.425781 1203.507812 631.082031 1200.644531 630.640625 C 1197.765625 630.191406 1195.140625 628.621094 1192.3125 627.882812 C 1189.523438 627.15625 1186.714844 626.566406 1183.953125 625.53125 C 1181.035156 624.433594 1178.253906 623.152344 1175.429688 622.003906 C 1172.570312 620.839844 1169.453125 620.347656 1166.652344 619.066406 C 1163.875 617.796875 1161.214844 616.242188 1158.460938 614.796875 C 1155.21875 612.796875 1154.4375 613.636719 1152.269531 610.503906 C 1154.730469 609.054688 1157.390625 608.703125 1160.019531 607.90625 C 1162.917969 607.03125 1165.554688 605.605469 1168.066406 605.277344 C 1172.871094 604.648438 1176.429688 605.347656 1176.523438 605.351562 C 1177.402344 605.390625 1178.101562 604.664062 1178.777344 604.203125 C 1179.757812 603.53125 1180.136719 602.605469 1180.195312 601.324219 C 1180.292969 599.164062 1179.066406 596.828125 1176.902344 596.730469 C 1176.582031 596.714844 1173.179688 597.699219 1168.34375 598.253906 C 1165.816406 598.542969 1162.921875 598.765625 1159.882812 599.546875 C 1157.214844 600.230469 1154.320312 600.886719 1151.621094 602.121094 C 1151.734375 599.542969 1152.144531 597.007812 1152.957031 594.304688 C 1155.09375 591.753906 1157.691406 589.285156 1160.296875 586.566406 C 1162.6875 584.070312 1165.089844 581.402344 1167.773438 578.9375 C 1170.382812 576.542969 1173.101562 574.207031 1175.894531 571.992188 C 1178.726562 569.75 1181.71875 567.800781 1184.65625 565.898438 C 1187.75 563.890625 1190.640625 561.726562 1193.746094 560.28125 C 1197.160156 558.6875 1200.496094 557.109375 1203.785156 556.425781 C 1206.667969 555.832031 1209.695312 556.019531 1212.34375 556.722656 C 1215.019531 557.4375 1217.128906 559.507812 1219.339844 561.371094 C 1221.957031 563.582031 1224.855469 565.34375 1226.714844 567.882812 C 1228.683594 570.578125 1230.199219 573.589844 1231.410156 576.585938 C 1232.628906 579.605469 1233.273438 582.878906 1233.8125 586.136719 C 1234.335938 589.308594 1234.949219 592.601562 1234.917969 595.929688 C 1234.890625 599.140625 1233.605469 602.332031 1233.144531 605.628906 M 1179.667969 690.503906 C 1178.429688 693.34375 1177.125 696.082031 1174.769531 698.117188 C 1172.539062 700.039062 1169.535156 700.976562 1166.648438 702.332031 C 1163.222656 703.941406 1159.890625 705.578125 1156.269531 706.296875 C 1152.585938 707.027344 1148.878906 706.722656 1145.15625 706.570312 C 1141.425781 706.417969 1137.601562 706.789062 1133.996094 705.789062 C 1130.414062 704.792969 1127.34375 702.472656 1124.050781 700.671875 C 1121.453125 699.253906 1119.246094 697.765625 1117.496094 695.644531 C 1115.679688 693.445312 1114.574219 690.988281 1113.6875 688.289062 C 1112.8125 685.636719 1111.648438 682.976562 1111.683594 680.089844 C 1111.726562 676.683594 1112.484375 672.992188 1113.351562 669.136719 C 1114.125 665.683594 1115.363281 662.171875 1116.59375 658.566406 C 1117.769531 655.113281 1119.476562 651.800781 1120.898438 648.386719 C 1122.339844 644.917969 1123.023438 641.148438 1124.542969 637.902344 C 1126.203125 634.351562 1128.359375 631.238281 1129.882812 628.1875 C 1131.945312 624.054688 1134.832031 621.257812 1138.554688 619.453125 C 1138.214844 621.898438 1138.3125 625.15625 1138.304688 628.464844 C 1138.292969 631.238281 1137.539062 634.296875 1138.042969 637.3125 C 1138.515625 640.144531 1140.335938 642.695312 1141.480469 645.457031 C 1142.308594 647.457031 1143.914062 648.3125 1145.914062 647.484375 C 1146.171875 647.378906 1146.496094 647.5 1146.71875 647.351562 C 1148.214844 646.328125 1148.957031 644.402344 1148.234375 642.660156 C 1147.09375 639.90625 1146.726562 636.953125 1146.386719 634.070312 C 1146.019531 630.964844 1145.808594 627.96875 1145.976562 625.269531 C 1146.230469 621.257812 1146.851562 618.046875 1147.183594 616.53125 C 1147.21875 616.523438 1146.90625 616.75 1146.941406 616.738281 C 1149.371094 618.511719 1152.117188 620.222656 1154.558594 622.535156 C 1156.800781 624.65625 1159.320312 626.742188 1161.472656 629.230469 C 1163.527344 631.605469 1165.476562 634.210938 1167.367188 636.839844 C 1169.226562 639.421875 1170.269531 642.578125 1171.890625 645.332031 C 1173.523438 648.109375 1175.84375 650.523438 1177.15625 653.402344 C 1178.511719 656.359375 1179.582031 659.449219 1180.511719 662.4375 C 1181.488281 665.574219 1181.992188 668.792969 1182.40625 671.871094 C 1182.84375 675.136719 1183.320312 678.414062 1183.011719 681.507812 C 1182.6875 684.734375 1180.941406 687.585938 1179.667969 690.503906 M 1097.886719 641.914062 C 1095.066406 643.859375 1092.53125 646.265625 1089.5 647.828125 C 1086.4375 649.410156 1083.027344 650.003906 1079.738281 650.894531 C 1076.46875 651.785156 1073.238281 652.773438 1069.730469 652.6875 C 1066.050781 652.59375 1062.628906 651.363281 1059.199219 650.160156 C 1055.746094 648.953125 1052.074219 648.078125 1049.15625 645.878906 C 1046.257812 643.691406 1044.449219 640.390625 1042.355469 637.351562 C 1040.371094 634.464844 1038.636719 631.636719 1037.519531 628.433594 C 1036.382812 625.179688 1035.894531 621.878906 1035.617188 618.449219 C 1035.335938 615.046875 1034.699219 611.609375 1035.222656 608.183594 C 1035.707031 605.019531 1036.898438 602.027344 1038.230469 599.160156 C 1039.566406 596.300781 1041.429688 593.734375 1043.417969 591.242188 C 1045.390625 588.769531 1047.863281 586.832031 1050.289062 584.796875 C 1053.261719 582.300781 1056.195312 580.074219 1059.800781 579.351562 C 1063.355469 578.640625 1067.144531 579.203125 1070.914062 579.640625 C 1074.601562 580.066406 1078.390625 580.40625 1081.898438 581.394531 C 1085.242188 582.34375 1088.578125 583.269531 1091.78125 584.46875 C 1095.003906 585.679688 1097.8125 587.878906 1100.960938 589.28125 C 1104.085938 590.667969 1107.664062 591.121094 1110.785156 592.632812 C 1113.460938 593.925781 1116.007812 595.386719 1118.648438 596.65625 C 1121.289062 597.929688 1123.796875 599.480469 1126.394531 600.921875 C 1128.917969 602.320312 1131.308594 603.890625 1133.785156 605.625 C 1130.722656 605.566406 1127.804688 605.167969 1124.871094 605.183594 C 1121.839844 605.199219 1118.847656 605.511719 1115.886719 605.78125 C 1112.925781 606.046875 1109.957031 606.484375 1107.003906 607.179688 C 1104.792969 607.699219 1103.136719 609.316406 1103.398438 611.292969 C 1103.632812 613.03125 1105.75 614.476562 1108.09375 614.007812 C 1111.28125 613.371094 1114.398438 612.480469 1117.542969 612.152344 C 1120.71875 611.816406 1123.960938 611.753906 1127.183594 611.839844 C 1130.304688 611.925781 1133.011719 612.679688 1136.261719 613.253906 C 1133.152344 614.519531 1131 616.382812 1128.320312 618.039062 C 1125.53125 619.757812 1122.90625 621.53125 1120.402344 623.546875 C 1117.886719 625.570312 1115.332031 627.519531 1112.921875 629.703125 C 1110.546875 631.851562 1108.433594 634.332031 1105.984375 636.503906 C 1103.601562 638.613281 1100.503906 639.90625 1097.886719 641.914062 M 1094.359375 527.613281 C 1094.308594 524.441406 1094.125 521.394531 1095.132812 518.660156 C 1096.183594 515.804688 1098.378906 513.6875 1100.476562 511.472656 C 1102.476562 509.363281 1104.53125 507.21875 1107.390625 505.839844 C 1110.699219 504.242188 1114.277344 503.605469 1117.796875 502.785156 C 1121.355469 501.953125 1124.84375 500.566406 1128.480469 500.53125 C 1132.117188 500.496094 1135.621094 501.851562 1139.195312 502.613281 C 1142.734375 503.363281 1146.1875 504.203125 1149.523438 505.738281 C 1152.433594 507.078125 1154.765625 508.871094 1156.949219 510.886719 C 1159.242188 513.007812 1161.691406 514.941406 1163.132812 517.628906 C 1164.570312 520.316406 1165.359375 523.347656 1165.890625 526.421875 C 1166.398438 529.371094 1166.277344 532.429688 1165.902344 535.574219 C 1165.433594 539.472656 1164.386719 543.082031 1163.453125 546.742188 C 1162.515625 550.410156 1162.183594 554.273438 1160.640625 557.886719 C 1158.773438 562.246094 1158.253906 562.023438 1156.390625 566.378906 C 1154.527344 570.738281 1155 570.941406 1153.132812 575.300781 C 1151.269531 579.660156 1151.433594 579.730469 1149.570312 584.09375 C 1148.542969 586.492188 1146.800781 588.496094 1146.0625 590.925781 C 1145.363281 593.238281 1145.199219 596.394531 1144.664062 599.0625 C 1142.878906 596.117188 1141.132812 592.667969 1139.894531 589.632812 C 1138.613281 586.5 1137.851562 583.199219 1137.089844 579.949219 C 1136.332031 576.710938 1135.96875 573.382812 1135.660156 570.007812 C 1135.476562 568.003906 1133.234375 566.722656 1131.9375 566.921875 C 1129.851562 567.246094 1128.757812 569.269531 1128.871094 571.382812 C 1129.042969 574.660156 1129.519531 577.875 1130.246094 581.003906 C 1130.972656 584.144531 1131.78125 587.308594 1132.949219 590.351562 C 1134.089844 593.335938 1135.796875 596.261719 1137.246094 599.207031 C 1134.566406 597.109375 1131.152344 595.839844 1129.105469 593.429688 C 1125.566406 589.257812 1125.632812 589.203125 1122.089844 585.03125 C 1118.546875 580.859375 1119.199219 580.300781 1115.65625 576.128906 C 1112.113281 571.953125 1111.335938 572.605469 1107.855469 568.378906 C 1105.644531 565.441406 1103.71875 562.25 1101.984375 559.089844 C 1100.226562 555.875 1098.917969 552.429688 1097.6875 549.027344 C 1096.445312 545.597656 1095.101562 542.132812 1094.433594 538.558594 C 1093.769531 535 1094.417969 531.273438 1094.359375 527.613281 M 1223.933594 555.140625 C 1221.265625 553 1218.140625 552.101562 1215.339844 551.179688 C 1212.285156 550.175781 1209.199219 549.074219 1206.0625 549.242188 C 1202.996094 549.410156 1199.929688 550.605469 1196.859375 551.625 C 1193.953125 552.589844 1190.78125 553.359375 1187.933594 554.855469 C 1185.179688 556.300781 1182.949219 558.785156 1180.308594 560.523438 C 1177.90625 562.105469 1175.074219 562.96875 1172.902344 564.703125 C 1170.722656 566.4375 1168.769531 568.460938 1166.558594 570.289062 C 1164.46875 572.023438 1162.972656 573.710938 1160.625 575.472656 C 1162.003906 572.53125 1162.664062 569.90625 1163.871094 567.019531 C 1165.113281 564.046875 1166.476562 561.175781 1167.523438 558.195312 C 1168.578125 555.191406 1169.726562 552.214844 1170.574219 549.132812 C 1171.40625 546.101562 1172.53125 543.070312 1173.148438 539.898438 C 1173.835938 536.363281 1173.140625 532.761719 1172.90625 529.363281 C 1172.660156 525.8125 1172.472656 522.265625 1171.285156 519.027344 C 1170.078125 515.738281 1167.949219 512.890625 1165.835938 510.09375 C 1163.761719 507.347656 1161.210938 505.074219 1158.328125 502.96875 C 1155.597656 500.972656 1152.953125 498.46875 1149.550781 497.191406 C 1146.710938 496.125 1143.484375 496.363281 1140.515625 495.761719 C 1137.542969 495.160156 1134.628906 494.554688 1131.601562 494.421875 C 1128.570312 494.292969 1125.554688 494.128906 1122.542969 494.464844 C 1119.53125 494.804688 1116.519531 495.226562 1113.59375 496.035156 C 1110.675781 496.839844 1107.6875 497.621094 1104.929688 498.898438 C 1101.980469 500.265625 1099.429688 502.179688 1097.179688 504.152344 C 1094.796875 506.242188 1092.78125 508.675781 1091.214844 511.320312 C 1089.644531 513.972656 1088.300781 516.867188 1087.585938 519.941406 C 1086.902344 522.882812 1087.070312 526.058594 1087.199219 529.265625 C 1087.355469 532.988281 1088.148438 536.484375 1088.808594 539.945312 C 1089.496094 543.554688 1090.34375 546.992188 1091.53125 550.367188 C 1092.730469 553.78125 1093.382812 557.429688 1095.03125 560.660156 C 1096.660156 563.847656 1099.296875 566.488281 1101.308594 569.546875 C 1103.261719 572.523438 1105.269531 575.488281 1107.527344 578.386719 C 1109.714844 581.1875 1111.722656 584.324219 1114.148438 587.097656 C 1109.925781 586.585938 1110.058594 585.726562 1106.167969 584.015625 C 1102.273438 582.300781 1102.640625 581.46875 1098.746094 579.753906 C 1095.5625 578.355469 1092.078125 577.84375 1088.835938 576.765625 C 1085.566406 575.683594 1082.25 575.015625 1078.871094 574.3125 C 1075.539062 573.613281 1072.3125 571.980469 1068.832031 571.699219 C 1064.777344 571.371094 1060.859375 572.371094 1057.113281 573.359375 C 1053.394531 574.339844 1049.808594 575.820312 1046.535156 578.367188 C 1044.09375 580.269531 1042.109375 582.621094 1040.078125 584.910156 C 1038.023438 587.21875 1036.324219 589.707031 1034.757812 592.347656 C 1033.183594 594.996094 1031.578125 597.585938 1030.5625 600.5 C 1029.554688 603.386719 1028.453125 606.316406 1028.058594 609.398438 C 1027.640625 612.683594 1027.5625 615.988281 1027.875 619.199219 C 1028.183594 622.410156 1029.539062 625.460938 1030.375 628.644531 C 1031.210938 631.832031 1032.332031 634.769531 1033.839844 637.554688 C 1035.390625 640.421875 1037.199219 643.011719 1039.335938 645.390625 C 1041.5 647.796875 1044.085938 649.59375 1046.726562 651.429688 C 1049.371094 653.273438 1051.652344 655.824219 1054.644531 657.027344 C 1057.628906 658.226562 1061.039062 657.972656 1064.234375 658.46875 C 1067.398438 658.960938 1070.5625 660.1875 1073.804688 659.925781 C 1076.96875 659.667969 1080.265625 659.097656 1083.386719 658.0625 C 1086.464844 657.042969 1089.121094 655.050781 1091.976562 653.621094 C 1094.839844 652.191406 1097.558594 650.570312 1100.222656 648.753906 C 1102.847656 646.96875 1105.527344 645.230469 1107.984375 643.097656 C 1113.636719 638.191406 1113.359375 637.855469 1119.480469 633.546875 C 1118.378906 636.183594 1117.097656 638.8125 1115.863281 641.726562 C 1114.710938 644.457031 1113.984375 647.453125 1112.851562 650.308594 C 1111.734375 653.132812 1109.703125 655.632812 1108.734375 658.46875 C 1107.726562 661.417969 1107.371094 664.511719 1106.667969 667.347656 C 1105.894531 670.460938 1104.746094 673.402344 1104.515625 676.222656 C 1104.234375 679.730469 1104.3125 683.101562 1104.816406 686.09375 C 1105.390625 689.492188 1106.828125 692.554688 1108.296875 695.3125 C 1109.847656 698.21875 1111.722656 701.003906 1114.128906 703.222656 C 1116.460938 705.371094 1119.714844 706.371094 1122.714844 707.894531 C 1125.511719 709.316406 1128.429688 710.535156 1131.691406 711.429688 C 1134.726562 712.261719 1137.820312 713.285156 1141.167969 713.675781 C 1144.191406 714.03125 1147.199219 714.074219 1150.183594 713.902344 C 1153.199219 713.730469 1156.039062 712.730469 1158.96875 712.042969 C 1161.890625 711.359375 1164.902344 711.046875 1167.699219 709.875 C 1170.453125 708.722656 1172.902344 706.984375 1175.496094 705.382812 C 1178.277344 703.539062 1180.34375 701.402344 1182.222656 699.046875 C 1184.21875 696.539062 1186.792969 694.371094 1187.878906 691.429688 C 1188.953125 688.511719 1189.542969 685.25 1189.835938 682.058594 C 1190.117188 678.980469 1189.925781 675.726562 1189.585938 672.539062 C 1189.257812 669.445312 1188.207031 666.390625 1187.386719 663.320312 C 1186.574219 660.273438 1185.558594 657.273438 1184.359375 654.375 C 1184.746094 654.714844 1183.824219 651.746094 1184.210938 652.085938 C 1182.65625 646.933594 1182.355469 644.855469 1178.777344 640.945312 C 1178.75 640.914062 1178.503906 641.011719 1178.480469 640.980469 C 1177.296875 640.304688 1176.769531 639.417969 1176.667969 638.332031 C 1176.613281 638.289062 1176.863281 637.917969 1176.8125 637.875 C 1172.625 632.464844 1169.554688 634.074219 1167.507812 627.546875 C 1172.679688 628.222656 1176.277344 630.191406 1179.820312 633.199219 C 1180.421875 633.15625 1181.078125 634.460938 1181.753906 634.785156 C 1181.804688 634.8125 1182.316406 633.875 1182.367188 633.898438 C 1182.371094 633.898438 1182.246094 634.164062 1182.246094 634.164062 C 1186.539062 636.195312 1187.269531 635.613281 1191.867188 636.496094 C 1191.191406 635.894531 1194.347656 637.617188 1193.667969 637.019531 C 1196.941406 637.320312 1199.859375 637.796875 1202.890625 638.207031 C 1205.984375 638.628906 1209.167969 639 1212.429688 638.761719 C 1215.878906 638.507812 1219.0625 636.808594 1222.125 635.382812 C 1225.199219 633.949219 1228.117188 632.175781 1230.515625 629.710938 C 1232.835938 627.324219 1234.457031 624.347656 1235.886719 621.132812 C 1237.140625 618.316406 1237.953125 615.40625 1238.738281 612.433594 C 1239.523438 609.457031 1240.425781 606.539062 1240.761719 603.476562 C 1241.097656 600.421875 1241.015625 597.367188 1240.925781 594.285156 C 1240.835938 591.207031 1240.265625 588.226562 1239.777344 585.191406 C 1239.144531 581.296875 1238.710938 577.472656 1237.273438 573.953125 C 1235.800781 570.347656 1234.085938 566.84375 1231.789062 563.746094 C 1229.511719 560.671875 1226.996094 557.597656 1223.933594 555.140625 "/></symbol><symbol id="el-flower-solid" viewBox="1217.4 582.3 206.9 212.6"><path fill-rule="nonzero" fill="currentColor" fill-opacity="1" d="M 1315.328125 678.28125 C 1317.375 680.691406 1320.742188 681.917969 1323.421875 684.015625 C 1321.972656 681.074219 1320.199219 678.238281 1319.054688 675.253906 C 1317.890625 672.210938 1317.21875 669 1316.492188 665.859375 C 1315.765625 662.730469 1316.039062 659.480469 1315.867188 656.203125 C 1315.753906 654.089844 1316.191406 652.941406 1318.277344 652.617188 C 1319.574219 652.417969 1321.039062 652.925781 1321.222656 654.929688 C 1321.527344 658.304688 1323.03125 661.457031 1323.792969 664.699219 C 1324.550781 667.949219 1325.164062 671.226562 1326.441406 674.359375 C 1327.679688 677.394531 1329.242188 679.730469 1331.023438 682.675781 C 1331.558594 680.007812 1332.324219 678.328125 1333.027344 676.015625 C 1333.761719 673.585938 1334.789062 671.367188 1335.8125 668.96875 C 1337.679688 664.613281 1336.699219 664.195312 1338.5625 659.835938 C 1340.425781 655.476562 1340.378906 655.457031 1342.242188 651.097656 C 1344.109375 646.734375 1344.09375 646.726562 1345.957031 642.367188 C 1347.503906 638.757812 1349.859375 635.5625 1350.792969 631.894531 C 1351.726562 628.230469 1351.582031 624.328125 1352.050781 620.429688 C 1352.425781 617.285156 1352.449219 614.261719 1351.9375 611.308594 C 1351.410156 608.234375 1350.582031 605.285156 1349.140625 602.601562 C 1347.703125 599.914062 1346.191406 597.070312 1343.898438 594.949219 C 1341.714844 592.933594 1339.003906 591.164062 1336.09375 589.820312 C 1332.753906 588.285156 1329.203125 587.003906 1325.664062 586.25 C 1322.09375 585.488281 1318.324219 585.28125 1314.6875 585.316406 C 1311.054688 585.351562 1307.535156 586.683594 1303.976562 587.515625 C 1300.457031 588.335938 1296.632812 588.53125 1293.324219 590.128906 C 1290.464844 591.507812 1288.042969 593.613281 1286.042969 595.722656 C 1283.941406 597.9375 1282.785156 600.8125 1281.734375 603.667969 C 1280.726562 606.402344 1279.871094 609.316406 1279.917969 612.484375 C 1279.976562 616.148438 1280.734375 619.722656 1281.398438 623.28125 C 1282.0625 626.859375 1282.785156 630.414062 1284.027344 633.84375 C 1285.257812 637.242188 1287.144531 640.351562 1288.902344 643.566406 C 1290.632812 646.726562 1292.167969 650.046875 1294.375 652.984375 C 1297.855469 657.207031 1297.78125 657.269531 1301.324219 661.441406 C 1304.871094 665.613281 1305.351562 665.214844 1308.769531 669.492188 C 1312.195312 673.777344 1311.785156 674.109375 1315.328125 678.28125 "/><path fill-rule="nonzero" fill="currentColor" fill-opacity="1" d="M 1323.3125 698.054688 C 1320.066406 697.476562 1316.515625 696.753906 1313.390625 696.671875 C 1310.171875 696.585938 1307.015625 697.523438 1303.839844 697.855469 C 1300.695312 698.183594 1297.542969 698.484375 1294.355469 699.121094 C 1292.011719 699.589844 1289.832031 697.894531 1289.597656 696.15625 C 1289.335938 694.179688 1290.890625 692.074219 1293.097656 691.554688 C 1296.054688 690.859375 1299.195312 691.5625 1302.15625 691.296875 C 1305.117188 691.027344 1308.054688 691.011719 1311.085938 690.996094 C 1314.023438 690.980469 1316.648438 690.332031 1319.710938 690.386719 C 1317.234375 688.65625 1315.257812 686.945312 1312.738281 685.546875 C 1310.140625 684.105469 1307.644531 682.488281 1305.003906 681.214844 C 1302.363281 679.945312 1299.523438 679.089844 1296.851562 677.796875 C 1293.726562 676.285156 1290.585938 674.878906 1287.460938 673.492188 C 1284.308594 672.089844 1281 671.117188 1277.777344 669.90625 C 1274.574219 668.703125 1271.300781 667.734375 1267.957031 666.789062 C 1264.449219 665.800781 1260.796875 665.054688 1257.109375 664.628906 C 1253.339844 664.191406 1249.585938 663.59375 1246.03125 664.304688 C 1242.425781 665.027344 1239.261719 666.914062 1236.292969 669.410156 C 1233.863281 671.445312 1231.773438 673.769531 1229.800781 676.242188 C 1227.8125 678.734375 1225.8125 681.179688 1224.476562 684.042969 C 1223.144531 686.90625 1222.714844 690.003906 1222.230469 693.171875 C 1221.707031 696.59375 1220.398438 700.003906 1220.679688 703.40625 C 1220.957031 706.835938 1222.808594 709.96875 1223.945312 713.222656 C 1225.0625 716.425781 1226.253906 719.554688 1228.238281 722.4375 C 1230.332031 725.476562 1233.0625 727.765625 1235.960938 729.953125 C 1238.878906 732.15625 1241.785156 734.308594 1245.238281 735.515625 C 1248.667969 736.71875 1252.246094 738.136719 1255.925781 738.230469 C 1259.429688 738.320312 1262.773438 737 1266.042969 736.109375 C 1269.332031 735.21875 1272.519531 734.027344 1275.582031 732.441406 C 1278.613281 730.878906 1281.550781 729.097656 1284.371094 727.152344 C 1286.988281 725.144531 1289.0625 722.625 1291.441406 720.515625 C 1293.894531 718.339844 1296.734375 716.679688 1299.109375 714.53125 C 1301.519531 712.347656 1303.503906 709.6875 1306.019531 707.664062 C 1308.523438 705.648438 1311.453125 704.140625 1314.242188 702.421875 C 1316.917969 700.769531 1320.203125 699.316406 1323.3125 698.054688 "/><path fill-rule="nonzero" fill="currentColor" fill-opacity="1" d="M 1332.925781 701.28125 C 1332.589844 702.796875 1332.828125 706.152344 1332.574219 710.164062 C 1332.40625 712.863281 1331.332031 715.9375 1331.699219 719.042969 C 1332.042969 721.925781 1333.78125 724.570312 1334.921875 727.324219 C 1335.644531 729.066406 1334.320312 731.03125 1332.824219 732.058594 C 1332.601562 732.207031 1332.324219 732.101562 1332.066406 732.207031 C 1330.066406 733.035156 1328.496094 732.328125 1327.667969 730.328125 C 1326.527344 727.566406 1325.34375 724.90625 1324.867188 722.070312 C 1324.367188 719.058594 1324.0625 716.097656 1324.070312 713.324219 C 1324.082031 710.015625 1324.355469 707.136719 1324.695312 704.691406 C 1320.972656 706.496094 1317.457031 708.566406 1315.390625 712.699219 C 1313.871094 715.75 1313.023438 719.5 1311.363281 723.050781 C 1309.847656 726.296875 1308.371094 729.703125 1306.925781 733.171875 C 1305.503906 736.585938 1303.703125 739.878906 1302.527344 743.332031 C 1301.296875 746.941406 1299.753906 750.417969 1298.980469 753.871094 C 1298.113281 757.726562 1297.917969 761.546875 1297.875 764.953125 C 1297.835938 767.839844 1298.609375 770.636719 1299.480469 773.289062 C 1300.367188 775.988281 1301.367188 778.738281 1303.183594 780.9375 C 1304.933594 783.0625 1307.34375 784.703125 1309.941406 786.121094 C 1313.234375 787.921875 1316.746094 789.210938 1320.332031 790.210938 C 1323.933594 791.210938 1327.628906 791.542969 1331.355469 791.695312 C 1335.078125 791.84375 1338.671875 791.25 1342.351562 790.523438 C 1345.976562 789.804688 1349.492188 788.929688 1352.917969 787.320312 C 1355.804688 785.964844 1358.578125 784.699219 1360.804688 782.78125 C 1363.160156 780.746094 1365.023438 778.375 1366.261719 775.535156 C 1367.535156 772.617188 1368.277344 769.535156 1368.601562 766.304688 C 1368.910156 763.214844 1369.4375 759.949219 1368.996094 756.683594 C 1368.582031 753.605469 1367.664062 750.449219 1366.6875 747.3125 C 1365.757812 744.324219 1364.113281 741.503906 1362.757812 738.542969 C 1361.445312 735.667969 1360.164062 732.722656 1358.53125 729.945312 C 1356.910156 727.191406 1354.734375 724.796875 1352.875 722.214844 C 1350.984375 719.585938 1348.945312 717.15625 1346.886719 714.78125 C 1344.734375 712.296875 1342.546875 710.015625 1340.304688 707.890625 C 1337.863281 705.578125 1335.734375 703.164062 1333.304688 701.390625 C 1333.269531 701.398438 1332.957031 701.269531 1332.925781 701.28125 "/><path fill-rule="nonzero" fill="currentColor" fill-opacity="1" d="M 1405.390625 646.425781 C 1403.179688 644.558594 1401.246094 642.246094 1398.566406 641.535156 C 1395.917969 640.832031 1392.988281 641.230469 1390.109375 641.824219 C 1386.816406 642.503906 1383.476562 643.78125 1380.0625 645.371094 C 1376.957031 646.816406 1373.4375 647.941406 1370.34375 649.949219 C 1367.410156 651.851562 1365.078125 654.785156 1362.25 657.027344 C 1359.453125 659.242188 1356.328125 661.113281 1353.722656 663.507812 C 1351.035156 665.976562 1348.992188 669.015625 1346.601562 671.511719 C 1343.996094 674.230469 1341.691406 676.835938 1339.554688 679.382812 C 1338.746094 682.089844 1337.820312 684.644531 1337.707031 687.222656 C 1340.40625 685.992188 1343.304688 684.632812 1345.976562 683.949219 C 1349.015625 683.164062 1352 683.195312 1354.53125 682.90625 C 1359.367188 682.351562 1362.753906 682.46875 1363.074219 682.480469 C 1365.238281 682.578125 1367.136719 684.054688 1367.039062 686.214844 C 1366.984375 687.496094 1365.859375 688.234375 1364.878906 688.90625 C 1364.203125 689.367188 1363.605469 690.457031 1362.722656 690.421875 C 1362.632812 690.417969 1359.03125 689.128906 1354.226562 689.753906 C 1351.71875 690.085938 1348.828125 690.90625 1345.933594 691.78125 C 1343.300781 692.578125 1340.914062 693.933594 1338.453125 695.382812 C 1340.621094 698.515625 1341.085938 698.214844 1344.328125 700.214844 C 1347.085938 701.660156 1350.359375 702.058594 1353.136719 703.328125 C 1355.9375 704.609375 1358.308594 706.867188 1361.167969 708.03125 C 1363.992188 709.179688 1367.054688 709.808594 1369.972656 710.90625 C 1372.730469 711.945312 1375.703125 712.128906 1378.496094 712.855469 C 1381.320312 713.59375 1384.125 714.117188 1387.003906 714.566406 C 1389.863281 715.011719 1392.695312 715.375 1395.628906 715.558594 C 1399.269531 715.785156 1402.371094 715.632812 1405.140625 714.457031 C 1408.191406 713.152344 1411.148438 711.515625 1413.226562 708.929688 C 1415.191406 706.484375 1416.6875 703.390625 1417.855469 700.183594 C 1418.941406 697.210938 1420.078125 693.976562 1420.542969 690.65625 C 1421.007812 687.363281 1421.269531 684.003906 1421.296875 680.792969 C 1421.324219 677.464844 1419.933594 674.269531 1419.410156 671.097656 C 1418.871094 667.839844 1418.875 664.453125 1417.65625 661.433594 C 1416.449219 658.433594 1413.964844 656.117188 1411.996094 653.425781 C 1410.136719 650.882812 1408.007812 648.632812 1405.390625 646.425781 "/></symbol></svg>